<svg width="50" height="50" viewBox="0 0 50 50" fill="none" xmlns="http://www.w3.org/2000/svg">
<g clip-path="url(#clip0_510_637)">
<path d="M41.7062 29.3754C40.1201 30.9663 38.0974 32.0508 35.8944 32.4914C33.6915 32.932 31.4073 32.7089 29.3312 31.8504L15.8063 48.1504C13.3313 50.6254 9.33125 50.6254 6.85625 48.1504C4.38125 45.6754 4.38125 41.6754 6.85625 39.2254L23.1562 25.6754C21.4563 21.5504 22.2812 16.6504 25.6312 13.3004C28.8312 10.1004 33.4312 9.25035 37.4313 10.6504L30.2062 17.8754L37.2562 24.9254L44.4062 17.7504C45.7313 21.7004 44.8563 26.2254 41.7062 29.3754ZM9.53125 45.4754C10.5312 46.4504 12.1312 46.4504 13.1062 45.4754C14.1062 44.4754 14.1062 42.8754 13.1062 41.9004C12.1312 40.9004 10.5312 40.9004 9.53125 41.9004C9.06252 42.3772 8.79986 43.0192 8.79986 43.6879C8.79986 44.3565 9.06252 44.9985 9.53125 45.4754Z" fill="white"/>
</g>
<defs>
<clipPath id="clip0_510_637">
<rect width="50" height="50" fill="white"/>
</clipPath>
</defs>
</svg>
