<svg width="30" height="30" viewBox="0 0 30 30" fill="none" xmlns="http://www.w3.org/2000/svg">
<path d="M15 0C6.71437 0 0 6.71625 0 15C0 23.2838 6.71437 30 15 30C23.2856 30 30 23.2838 30 15C30 6.71625 23.2856 0 15 0ZM21.9506 19.2994C22.3022 19.651 22.4997 20.1278 22.4997 20.625C22.4997 21.1222 22.3022 21.599 21.9506 21.9506C21.599 22.3022 21.1222 22.4997 20.625 22.4997C20.1278 22.4997 19.651 22.3022 19.2994 21.9506L15 17.6512L10.7006 21.9506C10.5269 22.1253 10.3203 22.264 10.0928 22.3586C9.86535 22.4532 9.62139 22.5019 9.375 22.5019C9.12861 22.5019 8.88465 22.4532 8.65715 22.3586C8.42965 22.264 8.2231 22.1253 8.04938 21.9506C7.69787 21.599 7.5004 21.1222 7.5004 20.625C7.5004 20.1278 7.69787 19.651 8.04938 19.2994L12.3488 15L8.04938 10.7006C7.6978 10.349 7.50028 9.87221 7.50028 9.375C7.50028 8.87779 7.6978 8.40095 8.04938 8.04938C8.40095 7.6978 8.87779 7.50028 9.375 7.50028C9.87221 7.50028 10.349 7.6978 10.7006 8.04938L15 12.3488L19.2994 8.04938C19.651 7.6978 20.1278 7.50028 20.625 7.50028C21.1222 7.50028 21.599 7.6978 21.9506 8.04938C22.3022 8.40095 22.4997 8.87779 22.4997 9.375C22.4997 9.87221 22.3022 10.349 21.9506 10.7006L17.6512 15L21.9506 19.2994Z" fill="#F0841E"/>
</svg>
