<svg width="21" height="21" viewBox="0 0 21 21" fill="none" xmlns="http://www.w3.org/2000/svg">
<path d="M0.722099 20.5636C0.56327 20.4047 0.483449 20.2191 0.482639 20.0067C0.481828 19.7942 0.558946 19.6097 0.713994 19.4532L8.98126 11.1859L0.722163 2.92679C0.466396 2.67103 0.336886 2.37103 0.333634 2.0268C0.330381 1.68256 0.455524 1.38443 0.709063 1.13238L1.13235 0.709092C1.38441 0.457032 1.68255 0.331889 2.02677 0.333661C2.37099 0.335434 2.67099 0.464943 2.92677 0.72219L11.1859 8.98129L19.4531 0.714022C19.6097 0.557495 19.7942 0.480377 20.0066 0.482668C20.2191 0.48496 20.4051 0.565152 20.5647 0.723246C20.7242 0.88134 20.804 1.06698 20.8041 1.28017C20.8042 1.49336 20.7267 1.67748 20.5716 1.83253L12.3044 10.0998L20.134 17.9294C20.3905 18.1859 20.52 18.4859 20.5225 18.8294C20.525 19.1729 20.3999 19.471 20.1471 19.7238L19.7238 20.1471C19.471 20.3999 19.1729 20.525 18.8294 20.5225C18.4859 20.52 18.1859 20.3905 17.9294 20.134L10.0998 12.3044L1.83251 20.5717C1.67598 20.7282 1.49148 20.8053 1.27902 20.803C1.06657 20.8022 0.880927 20.7224 0.722099 20.5636Z" fill="#F0841E"/>
</svg>
