<svg width="50" height="50" viewBox="0 0 50 50" fill="none" xmlns="http://www.w3.org/2000/svg">
<path d="M27.0833 6.25C22.1105 6.25 17.3414 8.22544 13.8251 11.7417C10.3088 15.2581 8.33331 20.0272 8.33331 25H2.08331L10.1875 33.1042L10.3333 33.3958L18.75 25H12.5C12.5 16.9375 19.0208 10.4167 27.0833 10.4167C35.1458 10.4167 41.6666 16.9375 41.6666 25C41.6666 33.0625 35.1458 39.5833 27.0833 39.5833C23.0625 39.5833 19.4166 37.9375 16.7916 35.2917L13.8333 38.25C15.5693 39.9962 17.634 41.3813 19.9082 42.3253C22.1824 43.2693 24.621 43.7535 27.0833 43.75C32.0561 43.75 36.8253 41.7746 40.3416 38.2583C43.8579 34.7419 45.8333 29.9728 45.8333 25C45.8333 20.0272 43.8579 15.2581 40.3416 11.7417C36.8253 8.22544 32.0561 6.25 27.0833 6.25ZM25 16.6667V27.0833L33.9166 32.375L35.4166 29.8542L28.125 25.5208V16.6667H25Z" fill="white"/>
</svg>
