<svg width="34" height="34" viewBox="0 0 34 34" fill="none" xmlns="http://www.w3.org/2000/svg">
<path d="M15.3 25.9251C15.3 25.3615 15.5239 24.821 15.9224 24.4224C16.321 24.0239 16.8615 23.8001 17.425 23.8001C17.9886 23.8001 18.5291 24.0239 18.9277 24.4224C19.3262 24.821 19.55 25.3615 19.55 25.9251C19.55 26.4886 19.3262 27.0291 18.9277 27.4277C18.5291 27.8262 17.9886 28.0501 17.425 28.0501C16.8615 28.0501 16.321 27.8262 15.9224 27.4277C15.5239 27.0291 15.3 26.4886 15.3 25.9251ZM15.3 17.425C15.3 16.8615 15.5239 16.321 15.9224 15.9224C16.321 15.5239 16.8615 15.3 17.425 15.3C17.9886 15.3 18.5291 15.5239 18.9277 15.9224C19.3262 16.321 19.55 16.8615 19.55 17.425C19.55 17.9886 19.3262 18.5291 18.9277 18.9277C18.5291 19.3262 17.9886 19.55 17.425 19.55C16.8615 19.55 16.321 19.3262 15.9224 18.9277C15.5239 18.5291 15.3 17.9886 15.3 17.425ZM15.3 8.92505C15.3 8.36146 15.5239 7.82096 15.9224 7.42245C16.321 7.02393 16.8615 6.80005 17.425 6.80005C17.9886 6.80005 18.5291 7.02393 18.9277 7.42245C19.3262 7.82096 19.55 8.36146 19.55 8.92505C19.55 9.48863 19.3262 10.0291 18.9277 10.4277C18.5291 10.8262 17.9886 11.05 17.425 11.05C16.8615 11.05 16.321 10.8262 15.9224 10.4277C15.5239 10.0291 15.3 9.48863 15.3 8.92505Z" fill="#F0841E"/>
</svg>
