<svg width="23" height="5" viewBox="0 0 23 5" fill="none" xmlns="http://www.w3.org/2000/svg">
<path d="M2.92505 4.69995C3.48863 4.69995 4.02913 4.47607 4.42765 4.07755C4.82616 3.67904 5.05005 3.13854 5.05005 2.57495C5.05005 2.01137 4.82616 1.47086 4.42765 1.07235C4.02913 0.673834 3.48863 0.449951 2.92505 0.449951C2.36146 0.449951 1.82096 0.673834 1.42244 1.07235C1.02393 1.47086 0.800047 2.01137 0.800047 2.57495C0.800047 3.13854 1.02393 3.67904 1.42244 4.07755C1.82096 4.47607 2.36146 4.69995 2.92505 4.69995ZM11.425 4.69995C11.9886 4.69995 12.5291 4.47607 12.9276 4.07755C13.3262 3.67904 13.55 3.13854 13.55 2.57495C13.55 2.01137 13.3262 1.47086 12.9276 1.07235C12.5291 0.673834 11.9886 0.449951 11.425 0.449951C10.8615 0.449951 10.321 0.673834 9.92245 1.07235C9.52393 1.47086 9.30005 2.01137 9.30005 2.57495C9.30005 3.13854 9.52393 3.67904 9.92245 4.07755C10.321 4.47607 10.8615 4.69995 11.425 4.69995ZM19.925 4.69995C20.4886 4.69995 21.0291 4.47607 21.4277 4.07755C21.8262 3.67904 22.05 3.13854 22.05 2.57495C22.05 2.01137 21.8262 1.47086 21.4277 1.07235C21.0291 0.673834 20.4886 0.449951 19.925 0.449951C19.3615 0.449951 18.821 0.673834 18.4224 1.07235C18.0239 1.47086 17.8 2.01137 17.8 2.57495C17.8 3.13854 18.0239 3.67904 18.4224 4.07755C18.821 4.47607 19.3615 4.69995 19.925 4.69995Z" fill="white"/>
</svg>
