<svg width="28" height="28" viewBox="0 0 28 28" fill="none" xmlns="http://www.w3.org/2000/svg">
<path d="M2.8 14C2.8 7.826 7.826 2.8 14 2.8C20.174 2.8 25.2 7.826 25.2 14C25.2 20.174 20.174 25.2 14 25.2C7.826 25.2 2.8 20.174 2.8 14ZM-6.11959e-07 14C-2.74158e-07 21.728 6.272 28 14 28C21.728 28 28 21.728 28 14C28 6.272 21.728 -9.49761e-07 14 -6.11959e-07C6.272 -2.74158e-07 -9.49761e-07 6.272 -6.11959e-07 14ZM14 12.6L8.4 12.6L8.4 15.4L14 15.4L14 19.6L19.6 14L14 8.4L14 12.6Z" fill="#F0841E"/>
</svg>
